<?xml version="1.0" encoding="UTF-8"?>
<svg class="iconify iconify--logos" width="31.88" height="32" aria-hidden="true" role="img" version="1.1" viewBox="0 0 256 257" xmlns="http://www.w3.org/2000/svg">
 <rect x="-.018122" y=".021474" width="255.95" height="256.83" ry="30.15" fill="#1e40af" stroke-width="5.1947"/>
 <g fill="#fff" stroke-width="3.5348" aria-label="DS">
  <path d="m73.983 179.83h-36.453v-102.83h36.754q15.515 0 26.712 6.1759 11.197 6.1256 17.222 17.624 6.0754 11.498 6.0754 27.515 0 16.067-6.0754 27.616-6.0252 11.548-17.323 17.724-11.247 6.1759-26.913 6.1759zm-14.712-18.628h13.808q9.6404 0 16.218-3.4143 6.6278-3.4645 9.9416-10.695 3.3641-7.2805 3.3641-18.779 0-11.398-3.3641-18.628-3.3139-7.2303-9.8914-10.645-6.5775-3.4143-16.218-3.4143h-13.858z"/>
  <path d="m196.14 106.57q-0.60252-6.0754-5.1716-9.4395-4.5691-3.3641-12.402-3.3641-5.3223 0-8.9876 1.5063-3.6653 1.4561-5.6235 4.067-1.908 2.6109-1.908 5.9248-0.10042 2.7616 1.1548 4.8202 1.3055 2.0586 3.5649 3.5649 2.2595 1.4561 5.2219 2.5607 2.9624 1.0544 6.3265 1.8076l9.2387 2.2092q6.7282 1.5063 12.352 4.0168 5.6235 2.5105 9.7408 6.1759 4.1172 3.6653 6.3767 8.6362 2.3097 4.9708 2.3599 11.398-0.0502 9.4395-4.8202 16.369-4.7198 6.8788-13.657 10.695-8.8872 3.7658-21.44 3.7658-12.452 0-21.691-3.816-9.1885-3.816-14.36-11.297-5.1214-7.5315-5.3725-18.628h21.038q0.35147 5.1717 2.9624 8.6362 2.6612 3.4143 7.0796 5.1717 4.4687 1.7071 10.092 1.7071 5.5231 0 9.5902-1.6067 4.1172-1.6067 6.3767-4.4687 2.2595-2.862 2.2595-6.5775 0-3.4645-2.0586-5.8244-2.0084-2.3599-5.9248-4.0168-3.8662-1.6569-9.4897-3.0126l-11.197-2.8118q-13.004-3.1632-20.536-9.8914t-7.4813-18.126q-0.0502-9.3391 4.9708-16.318 5.0712-6.9792 13.908-10.896t20.084-3.9164q11.448 0 19.984 3.9164 8.586 3.9164 13.356 10.896 4.77 6.9792 4.9206 16.168z"/>
 </g>
</svg>
